/* XPM */
static char * hide_prelight_xpm[] = {
"24 26 4 1",
" 	c None",
".	c #080808",
"+	c #f5f5f5",
"@	c #f5f5f5",
"@@@@@@@@@@@@@@@@@@@@@@@@",
"........................",
"........................",
"........................",
"........................",
"........................",
"........................",
"........................",
"........................",
"........................",
"........................",
"........................",
"........++++++++........",
"........++++++++........",
"........................",
"........................",
"........................",
"........................",
"........................",
"........................",
"........................",
"........................",
"........................",
"........................",
"........................",
"........................"};
